<?xml version="1.0" encoding="UTF-8" standalone="no"?>
<svg
   xmlns:dc="http://purl.org/dc/elements/1.1/"
   xmlns:cc="http://creativecommons.org/ns#"
   xmlns:rdf="http://www.w3.org/1999/02/22-rdf-syntax-ns#"
   xmlns:svg="http://www.w3.org/2000/svg"
   xmlns="http://www.w3.org/2000/svg"
   xmlns:sodipodi="http://sodipodi.sourceforge.net/DTD/sodipodi-0.dtd"
   xmlns:inkscape="http://www.inkscape.org/namespaces/inkscape"
   viewBox="0 0 24 24"
   fill="white"
   width="24px"
   height="24px"
   version="1.1"
   id="svg14"
   sodipodi:docname="phonelink_ring-white-24dp (1).svg"
   inkscape:version="1.0.1 (c497b03c, 2020-09-10)">
  <metadata
     id="metadata20">
    <rdf:RDF>
      <cc:Work
         rdf:about="">
        <dc:format>image/svg+xml</dc:format>
        <dc:type
           rdf:resource="http://purl.org/dc/dcmitype/StillImage" />
        <dc:title></dc:title>
      </cc:Work>
    </rdf:RDF>
  </metadata>
  <defs
     id="defs18" />
  <sodipodi:namedview
     pagecolor="#ffffff"
     bordercolor="#666666"
     borderopacity="1"
     objecttolerance="10"
     gridtolerance="10"
     guidetolerance="10"
     inkscape:pageopacity="0"
     inkscape:pageshadow="2"
     inkscape:window-width="1440"
     inkscape:window-height="900"
     id="namedview16"
     showgrid="false"
     inkscape:pagecheckerboard="true"
     inkscape:zoom="29.625"
     inkscape:cx="12"
     inkscape:cy="12"
     inkscape:window-x="0"
     inkscape:window-y="0"
     inkscape:window-maximized="0"
     inkscape:current-layer="svg14" />
  <path
     d="M0 0h24v24H0V0z"
     fill="none"
     id="path10" />
  <path
     d="M 17,1.0337553 H 6.9999998 c -1.1,0 -2,0.9 -2,2 V 21.033755 c 0,1.1 0.9,2 2,2 H 17 c 1.1,0 2,-0.9 2,-2 V 3.0337553 c 0,-1.1 -0.9,-2 -2,-2 z M 17,20.033755 H 6.9999998 V 4.0337553 H 17 Z"
     id="path12"
     sodipodi:nodetypes="sssssssssccccc" />
  <g
     id="g28"
     transform="translate(-0.03117035)">
    <path
       d="m 2.2434598,7.7499998 -1.0000001,1 C 3.0434598,10.55 3.0434598,13.35 1.2434597,15.25 l 1.0000001,1 c 2.5,-2.3 2.5,-6.1 0,-8.5000002 z"
       id="path22"
       sodipodi:nodetypes="ccccc" />
    <path
       d="m 21.818881,7.7499998 1,1 c -1.8,1.8000002 -1.8,4.6000002 0,6.5000002 l -1,1 c -2.5,-2.3 -2.5,-6.1 0,-8.5000002 z"
       id="path24"
       sodipodi:nodetypes="ccccc" />
  </g>
</svg>
