<svg width="256" height="60" viewBox="0 0 256 60" fill="none" xmlns="http://www.w3.org/2000/svg">
<g filter="url(#filter0_d)">
<path d="M30 1C8.22222 1 2 7.22222 2 29C2 50.7778 8.23778 57 30 57C51.7622 57 58 50.7778 58 29C58 7.22222 51.7622 1 30 1Z" fill="black"/>
<mask id="mask0" mask-type="alpha" maskUnits="userSpaceOnUse" x="2" y="1" width="56" height="56">
<path d="M30 1C8.22222 1 2 7.22222 2 29C2 50.7778 8.23778 57 30 57C51.7622 57 58 50.7778 58 29C58 7.22222 51.7622 1 30 1Z" fill="white"/>
</mask>
<g mask="url(#mask0)">
<rect x="-12" y="-13" width="84" height="84" fill="#448AFF"/>
<path d="M35.6065 16.206H23.6157C22.2968 16.206 21.2176 17.256 21.2176 18.5394V39.5394C21.2176 40.8227 22.2968 41.8727 23.6157 41.8727H35.6065C36.9255 41.8727 38.0046 40.8227 38.0046 39.5394V18.5394C38.0046 17.256 36.9255 16.206 35.6065 16.206V16.206ZM35.6065 38.3727H23.6157V19.706H35.6065V38.3727Z" fill="white"/>
<path d="M17.8749 24.0417L16.6758 25.2083C18.8342 27.3083 18.8342 30.575 16.6758 32.7917L17.8749 33.9583C20.8726 31.275 20.8726 26.8417 17.8749 24.0417V24.0417Z" fill="white"/>
<path d="M41.3473 24.0417L42.5464 25.2083C40.388 27.3083 40.388 30.575 42.5464 32.7917L41.3473 33.9583C38.3496 31.275 38.3496 26.8417 41.3473 24.0417V24.0417Z" fill="white"/>
<rect x="-12" y="-13" width="84" height="84" fill="#448AFF"/>
<path d="M35.6065 16.206H23.6157C22.2968 16.206 21.2176 17.256 21.2176 18.5394V39.5394C21.2176 40.8227 22.2968 41.8727 23.6157 41.8727H35.6065C36.9255 41.8727 38.0046 40.8227 38.0046 39.5394V18.5394C38.0046 17.256 36.9255 16.206 35.6065 16.206V16.206ZM35.6065 38.3727H23.6157V19.706H35.6065V38.3727Z" fill="white"/>
<path d="M17.8749 24.0417L16.6758 25.2083C18.8342 27.3083 18.8342 30.575 16.6758 32.7917L17.8749 33.9583C20.8726 31.275 20.8726 26.8417 17.8749 24.0417V24.0417Z" fill="white"/>
<path d="M41.3473 24.0417L42.5464 25.2083C40.388 27.3083 40.388 30.575 42.5464 32.7917L41.3473 33.9583C38.3496 31.275 38.3496 26.8417 41.3473 24.0417V24.0417Z" fill="white"/>
</g>
</g>
<path d="M167.793 44.377C167.793 45.5254 167.535 46.4391 167.02 47.1182C166.51 47.7972 165.806 48.1367 164.908 48.1367C164.042 48.1367 163.367 47.8245 162.884 47.2002L162.802 48H161.298V37.5H162.96V41.3145C163.438 40.7493 164.083 40.4668 164.894 40.4668C165.796 40.4668 166.505 40.8018 167.02 41.4717C167.535 42.1416 167.793 43.0781 167.793 44.2812V44.377ZM166.131 44.2334C166.131 43.4313 165.99 42.8298 165.708 42.4287C165.425 42.0277 165.015 41.8271 164.477 41.8271C163.757 41.8271 163.251 42.1416 162.96 42.7705V45.8193C163.256 46.4619 163.766 46.7832 164.491 46.7832C165.01 46.7832 165.411 46.5895 165.694 46.2021C165.976 45.8148 166.122 45.2292 166.131 44.4453V44.2334ZM171.396 45.6211L172.9 40.6035H174.67L171.731 49.1211C171.28 50.3652 170.514 50.9873 169.434 50.9873C169.192 50.9873 168.926 50.9463 168.634 50.8643V49.5791L168.949 49.5996C169.368 49.5996 169.682 49.5221 169.892 49.3672C170.106 49.2168 170.275 48.9616 170.398 48.6016L170.637 47.9658L168.039 40.6035H169.83L171.396 45.6211ZM181.925 42.7637L184.215 38.0469H186.129L182.793 44.3359V48H181.057V44.3359L177.714 38.0469H179.635L181.925 42.7637ZM185.986 44.2334C185.986 43.5088 186.13 42.8571 186.417 42.2783C186.704 41.695 187.107 41.2484 187.627 40.9385C188.146 40.624 188.743 40.4668 189.418 40.4668C190.416 40.4668 191.225 40.7881 191.845 41.4307C192.469 42.0732 192.806 42.9255 192.856 43.9873L192.863 44.377C192.863 45.1061 192.722 45.7578 192.439 46.332C192.161 46.9062 191.76 47.3506 191.236 47.665C190.717 47.9795 190.115 48.1367 189.431 48.1367C188.388 48.1367 187.552 47.7904 186.923 47.0977C186.298 46.4004 185.986 45.473 185.986 44.3154V44.2334ZM187.647 44.377C187.647 45.138 187.804 45.735 188.119 46.168C188.433 46.5964 188.871 46.8105 189.431 46.8105C189.992 46.8105 190.427 46.5918 190.737 46.1543C191.052 45.7168 191.209 45.0765 191.209 44.2334C191.209 43.486 191.047 42.8936 190.723 42.4561C190.404 42.0186 189.969 41.7998 189.418 41.7998C188.875 41.7998 188.445 42.0163 188.126 42.4492C187.807 42.8776 187.647 43.5202 187.647 44.377ZM195.605 41.4102C196.147 40.7812 196.833 40.4668 197.663 40.4668C199.24 40.4668 200.039 41.3669 200.062 43.167V48H198.401V43.2285C198.401 42.7181 198.289 42.3581 198.066 42.1484C197.847 41.9342 197.524 41.8271 197.095 41.8271C196.43 41.8271 195.933 42.1234 195.605 42.7158V48H193.944V37.5H195.605V41.4102ZM205.867 48C205.794 47.8587 205.73 47.6286 205.675 47.3096C205.147 47.861 204.499 48.1367 203.734 48.1367C202.991 48.1367 202.385 47.9248 201.915 47.501C201.446 47.0771 201.211 46.5531 201.211 45.9287C201.211 45.1403 201.503 44.5365 202.086 44.1172C202.674 43.6934 203.513 43.4814 204.602 43.4814H205.621V42.9961C205.621 42.6133 205.513 42.3079 205.299 42.0801C205.085 41.8477 204.759 41.7314 204.322 41.7314C203.943 41.7314 203.634 41.8271 203.392 42.0186C203.15 42.2054 203.03 42.4447 203.03 42.7363H201.369C201.369 42.3307 201.503 41.9525 201.772 41.6016C202.041 41.2461 202.405 40.9681 202.866 40.7676C203.33 40.5671 203.848 40.4668 204.417 40.4668C205.283 40.4668 205.974 40.6855 206.489 41.123C207.004 41.556 207.268 42.1667 207.282 42.9551V46.291C207.282 46.9564 207.375 47.4873 207.562 47.8838V48H205.867ZM204.041 46.8037C204.37 46.8037 204.677 46.724 204.964 46.5645C205.256 46.4049 205.475 46.1908 205.621 45.9219V44.5273H204.725C204.11 44.5273 203.647 44.6344 203.337 44.8486C203.027 45.0628 202.872 45.3659 202.872 45.7578C202.872 46.0768 202.977 46.332 203.187 46.5234C203.401 46.7103 203.686 46.8037 204.041 46.8037ZM210.263 40.6035L210.311 41.458C210.858 40.7972 211.575 40.4668 212.464 40.4668C214.004 40.4668 214.788 41.3486 214.816 43.1123V48H213.154V43.208C213.154 42.7386 213.052 42.3923 212.847 42.1689C212.646 41.9411 212.316 41.8271 211.856 41.8271C211.186 41.8271 210.687 42.1302 210.359 42.7363V48H208.697V40.6035H210.263ZM217.756 40.6035L217.804 41.458C218.351 40.7972 219.068 40.4668 219.957 40.4668C221.497 40.4668 222.281 41.3486 222.309 43.1123V48H220.647V43.208C220.647 42.7386 220.545 42.3923 220.34 42.1689C220.139 41.9411 219.809 41.8271 219.349 41.8271C218.679 41.8271 218.18 42.1302 217.852 42.7363V48H216.19V40.6035H217.756ZM228.784 46.6191H233.302V48H227.054V38.0469H228.784V46.6191ZM237.425 48.1367C236.372 48.1367 235.518 47.8063 234.862 47.1455C234.21 46.4801 233.884 45.596 233.884 44.4932V44.2881C233.884 43.5498 234.025 42.8913 234.308 42.3125C234.595 41.7292 234.996 41.2757 235.511 40.9521C236.026 40.6286 236.6 40.4668 237.234 40.4668C238.241 40.4668 239.018 40.7881 239.565 41.4307C240.116 42.0732 240.392 42.9824 240.392 44.1582V44.8281H235.559C235.609 45.4388 235.812 45.9219 236.167 46.2773C236.527 46.6328 236.979 46.8105 237.521 46.8105C238.282 46.8105 238.902 46.5029 239.38 45.8877L240.276 46.7422C239.98 47.1842 239.583 47.5283 239.086 47.7744C238.594 48.016 238.04 48.1367 237.425 48.1367ZM237.227 41.7998C236.771 41.7998 236.402 41.9593 236.12 42.2783C235.842 42.5973 235.664 43.0417 235.586 43.6113H238.751V43.4883C238.715 42.9323 238.567 42.513 238.307 42.2305C238.047 41.9434 237.687 41.7998 237.227 41.7998ZM241.076 44.2334C241.076 43.5088 241.22 42.8571 241.507 42.2783C241.794 41.695 242.197 41.2484 242.717 40.9385C243.237 40.624 243.834 40.4668 244.508 40.4668C245.506 40.4668 246.315 40.7881 246.935 41.4307C247.559 42.0732 247.896 42.9255 247.946 43.9873L247.953 44.377C247.953 45.1061 247.812 45.7578 247.529 46.332C247.252 46.9062 246.85 47.3506 246.326 47.665C245.807 47.9795 245.205 48.1367 244.522 48.1367C243.478 48.1367 242.642 47.7904 242.013 47.0977C241.389 46.4004 241.076 45.473 241.076 44.3154V44.2334ZM242.738 44.377C242.738 45.138 242.895 45.735 243.209 46.168C243.524 46.5964 243.961 46.8105 244.522 46.8105C245.082 46.8105 245.517 46.5918 245.827 46.1543C246.142 45.7168 246.299 45.0765 246.299 44.2334C246.299 43.486 246.137 42.8936 245.814 42.4561C245.495 42.0186 245.059 41.7998 244.508 41.7998C243.966 41.7998 243.535 42.0163 243.216 42.4492C242.897 42.8776 242.738 43.5202 242.738 44.377ZM250.6 40.6035L250.647 41.458C251.194 40.7972 251.912 40.4668 252.801 40.4668C254.341 40.4668 255.125 41.3486 255.152 43.1123V48H253.491V43.208C253.491 42.7386 253.389 42.3923 253.184 42.1689C252.983 41.9411 252.653 41.8271 252.192 41.8271C251.522 41.8271 251.023 42.1302 250.695 42.7363V48H249.034V40.6035H250.6Z" fill="#757575"/>
<path d="M94.3418 18.373H86.4668V23.7051H95.709V27H82.3652V7.09375H95.6816V10.416H86.4668V15.1602H94.3418V18.373ZM101.725 27H97.7605V6H101.725V27ZM108.398 12.207L108.521 13.8613C109.569 12.5762 110.987 11.9336 112.773 11.9336C114.678 11.9336 115.986 12.6855 116.697 14.1895C117.736 12.6855 119.217 11.9336 121.14 11.9336C122.744 11.9336 123.938 12.403 124.722 13.3418C125.506 14.2715 125.898 15.6751 125.898 17.5527V27H121.933V17.5664C121.933 16.7279 121.769 16.1172 121.441 15.7344C121.113 15.3424 120.534 15.1465 119.705 15.1465C118.52 15.1465 117.699 15.7116 117.244 16.8418L117.257 27H113.306V17.5801C113.306 16.7233 113.138 16.1035 112.8 15.7207C112.463 15.3379 111.889 15.1465 111.078 15.1465C109.957 15.1465 109.145 15.6113 108.644 16.541V27H104.693V12.207H108.398ZM134.17 21.4082L136.905 12.207H141.143L135.196 29.2969L134.868 30.0762C133.983 32.0085 132.525 32.9746 130.493 32.9746C129.918 32.9746 129.335 32.888 128.743 32.7148V29.7207L129.344 29.7344C130.092 29.7344 130.648 29.6204 131.012 29.3926C131.386 29.1647 131.677 28.7865 131.887 28.2578L132.352 27.041L127.17 12.207H131.422L134.17 21.4082ZM150.714 15.9121C150.176 15.8392 149.702 15.8027 149.292 15.8027C147.797 15.8027 146.818 16.3086 146.353 17.3203V27H142.402V12.207H146.134L146.243 13.9707C147.036 12.6126 148.135 11.9336 149.538 11.9336C149.976 11.9336 150.386 11.9928 150.769 12.1113L150.714 15.9121ZM160.49 27C160.308 26.6445 160.176 26.2025 160.094 25.6738C159.137 26.7402 157.893 27.2734 156.361 27.2734C154.912 27.2734 153.709 26.8542 152.752 26.0156C151.804 25.1771 151.33 24.1198 151.33 22.8438C151.33 21.276 151.909 20.0729 153.066 19.2344C154.233 18.3958 155.915 17.972 158.111 17.9629H159.93V17.1152C159.93 16.4316 159.752 15.8848 159.396 15.4746C159.05 15.0645 158.499 14.8594 157.742 14.8594C157.077 14.8594 156.553 15.0189 156.17 15.3379C155.796 15.6569 155.609 16.0944 155.609 16.6504H151.658C151.658 15.7936 151.923 15.0007 152.451 14.2715C152.98 13.5423 153.727 12.9727 154.693 12.5625C155.66 12.1432 156.744 11.9336 157.947 11.9336C159.77 11.9336 161.215 12.3939 162.281 13.3145C163.357 14.2259 163.895 15.5111 163.895 17.1699V23.582C163.904 24.9857 164.1 26.0475 164.482 26.7676V27H160.49ZM157.223 24.252C157.806 24.252 158.344 24.1243 158.836 23.8691C159.328 23.6048 159.693 23.2539 159.93 22.8164V20.2734H158.453C156.475 20.2734 155.423 20.957 155.295 22.3242L155.281 22.5566C155.281 23.0488 155.454 23.4544 155.801 23.7734C156.147 24.0924 156.621 24.252 157.223 24.252Z" fill="#4F8BF5"/>
<defs>
<filter id="filter0_d" x="0" y="0" width="60" height="60" filterUnits="userSpaceOnUse" color-interpolation-filters="sRGB">
<feFlood flood-opacity="0" result="BackgroundImageFix"/>
<feColorMatrix in="SourceAlpha" type="matrix" values="0 0 0 0 0 0 0 0 0 0 0 0 0 0 0 0 0 0 127 0"/>
<feOffset dy="1"/>
<feGaussianBlur stdDeviation="1"/>
<feColorMatrix type="matrix" values="0 0 0 0 0 0 0 0 0 0 0 0 0 0 0 0 0 0 0.24 0"/>
<feBlend mode="normal" in2="BackgroundImageFix" result="effect1_dropShadow"/>
<feBlend mode="normal" in="SourceGraphic" in2="effect1_dropShadow" result="shape"/>
</filter>
</defs>
</svg>
